<?xml version="1.0" standalone="no"?>
<!DOCTYPE svg PUBLIC "-//W3C//DTD SVG 20010904//EN"
 "http://www.w3.org/TR/2001/REC-SVG-20010904/DTD/svg10.dtd">
<svg version="1.0" xmlns="http://www.w3.org/2000/svg"
 width="1080.000000pt" height="507.000000pt" viewBox="0 0 1080.000000 507.000000"
 preserveAspectRatio="xMidYMid meet">

<g transform="translate(0.000000,507.000000) scale(0.100000,-0.100000)"
fill="#000000" stroke="none">
<path d="M3380 4554 l-305 -73 -178 0 c-149 -1 -201 -5 -310 -27 -163 -31
-226 -51 -396 -126 -121 -52 -137 -57 -170 -48 -20 5 -130 21 -246 35 -115 14
-257 32 -313 41 -82 12 -117 12 -165 3 -88 -15 -106 -27 -136 -89 -45 -89 -56
-174 -35 -277 2 -12 33 -45 70 -73 l65 -53 154 -30 154 -30 -20 -38 c-49 -97
-118 -332 -119 -404 0 -50 -32 -91 -81 -103 -29 -7 -57 -25 -84 -52 -39 -40
-40 -43 -39 -106 1 -62 0 -65 -20 -60 -12 4 -51 11 -87 18 -60 11 -84 9 -275
-23 l-209 -34 -6 -130 c-7 -137 -9 -1154 -2 -1120 2 11 7 59 11 108 7 85 21
112 33 65 3 -13 8 212 10 499 2 287 7 524 10 527 12 13 355 48 409 42 66 -6
182 -45 236 -78 52 -31 96 -45 171 -53 61 -7 62 -6 69 19 3 14 16 28 27 32 12
4 97 6 190 5 147 -2 167 -1 167 13 0 13 12 16 56 16 68 0 289 -36 346 -56 41
-14 58 -12 58 9 0 16 48 41 140 73 88 30 233 43 278 25 24 -10 48 -7 158 19
145 36 213 35 307 0 48 -18 55 -19 111 -4 34 8 102 30 151 48 50 19 113 36
141 39 68 7 159 46 245 102 90 59 91 60 123 34 l27 -21 -3 -245 -3 -245 -34
-29 -34 -28 24 -10 c13 -5 35 -20 48 -35 23 -24 24 -30 18 -128 -9 -170 -44
-254 -112 -277 -38 -12 -133 -25 -163 -22 -12 1 -66 -11 -120 -27 -169 -53
-213 -57 -400 -44 -127 9 -202 20 -312 47 -134 32 -157 35 -305 35 -175 1
-236 -9 -332 -56 -78 -38 -175 -44 -268 -15 -110 34 -212 38 -336 11 -121 -26
-147 -38 -191 -86 -18 -20 -44 -41 -58 -48 -29 -13 -80 -10 -80 6 0 5 -11 19
-25 30 -14 11 -25 25 -25 33 0 7 -7 15 -15 19 -12 4 -15 25 -15 96 0 58 -4 89
-10 85 -6 -4 -7 -50 -3 -124 l6 -119 -27 -17 c-18 -12 -26 -26 -26 -47 0 -18
-9 -37 -22 -49 -34 -29 -110 -67 -159 -79 -50 -12 -421 -50 -430 -44 -4 2 -10
-3 -13 -12 -4 -11 4 -19 29 -30 22 -9 37 -23 41 -39 3 -14 9 -25 13 -25 4 0
117 -23 251 -51 l245 -50 210 6 c116 3 238 11 273 17 61 10 64 9 155 -30 212
-93 333 -131 511 -162 430 -73 771 -64 1101 30 324 92 575 255 737 479 72 100
170 291 208 405 13 39 16 41 53 27 l25 -10 -20 52 c-16 41 -19 65 -13 112 17
156 24 258 25 345 0 107 -33 372 -55 439 -23 70 -18 74 152 94 l148 17 202
-122 c185 -112 204 -126 209 -155 3 -17 4 -146 3 -285 -4 -222 -6 -257 -22
-281 -21 -33 -80 -64 -138 -73 l-42 -7 44 -23 c58 -30 86 -30 136 3 50 32 80
82 88 148 4 28 2 227 -4 444 -6 217 -9 396 -7 398 2 2 74 12 161 23 l158 19
171 -123 171 -123 7 -189 c3 -104 8 -273 10 -376 2 -102 7 -190 11 -195 5 -4
17 3 28 17 18 23 19 36 14 175 -10 257 -25 848 -22 851 1 2 58 10 126 19 101
13 126 14 139 3 199 -156 629 -562 655 -618 11 -22 12 -17 15 45 2 39 -1 200
-7 360 -5 159 -7 292 -5 294 5 5 273 40 311 41 16 0 57 -38 147 -136 l125
-136 5 -61 c3 -34 10 -242 16 -462 5 -220 12 -461 15 -535 4 -75 3 -143 0
-152 -5 -13 -20 0 -67 55 -34 40 -87 99 -119 132 -31 33 -59 71 -62 85 -2 14
-5 -18 -6 -71 l-1 -96 -47 -6 c-27 -4 -84 -9 -129 -13 l-81 -7 -179 184 c-98
101 -254 260 -346 354 l-167 169 6 -381 6 -381 -74 -7 c-41 -3 -110 -9 -154
-13 l-80 -8 45 -23 c131 -67 210 -116 211 -130 0 -11 2 -12 6 -3 9 22 23 1 23
-35 l0 -36 83 7 c45 3 133 9 195 13 62 3 114 9 116 12 2 3 -4 125 -14 271 -10
146 -16 267 -13 270 2 2 7 0 11 -6 4 -6 71 -85 150 -176 141 -163 145 -167
278 -252 l136 -86 66 10 c37 5 113 14 170 21 l102 11 0 32 c0 17 -11 317 -25
666 -14 349 -25 649 -25 665 0 24 -24 58 -122 170 -111 128 -125 140 -157 142
-20 1 -121 -8 -226 -20 l-189 -22 3 -55 c1 -30 11 -178 22 -329 10 -151 16
-277 13 -280 -3 -3 -8 -1 -12 5 -4 6 -70 81 -147 168 -87 98 -192 203 -280
279 -77 66 -150 130 -163 141 l-22 20 -148 -23 c-81 -12 -156 -25 -167 -27
-19 -5 -20 -12 -16 -124 2 -66 0 -120 -4 -120 -4 0 -64 42 -134 93 -69 52
-134 98 -144 104 -12 6 -78 2 -210 -13 -106 -13 -198 -23 -204 -24 -10 0 -13
-33 -13 -128 0 -71 -3 -131 -6 -134 -3 -4 -85 44 -182 104 -202 127 -165 119
-415 90 -133 -16 -149 -16 -158 -2 -11 17 -2 -29 13 -70 10 -27 12 -169 3
-178 -3 -3 -11 0 -17 6 -7 7 -20 12 -30 12 -16 0 -58 64 -58 90 0 25 32 7 46
-25 8 -20 19 -33 24 -30 18 11 10 63 -14 92 -13 15 -34 53 -47 83 -37 90 -68
127 -133 160 -33 17 -65 30 -72 30 -7 0 -18 8 -23 18 -12 22 -108 47 -145 38
-30 -8 -34 -1 -38 64 l-3 45 37 3 c51 4 56 26 13 69 -19 19 -35 36 -35 38 0 2
16 13 35 25 25 15 53 22 94 23 41 1 57 5 53 13 -23 38 -123 145 -154 165 -43
27 -43 26 -24 65 24 47 31 172 13 214 -13 29 -16 31 -16 13 -2 -39 -37 -20
-64 34 -20 38 -21 57 -6 82 10 14 7 24 -12 50 -25 34 -34 38 -119 44 -43 3
-119 -11 -360 -69z m109 -33 c11 -7 5 -13 -24 -25 -173 -73 -845 -220 -845
-186 0 18 255 99 466 149 111 26 166 37 334 64 44 7 55 7 69 -2z m-1543 -275
c18 -14 18 -15 -10 -26 -33 -12 -56 -7 -56 13 0 30 33 36 66 13z m264 -83 c14
-9 26 -17 28 -18 1 -1 -10 -16 -24 -33 -26 -29 -29 -30 -56 -16 -28 14 -46 53
-33 73 10 16 57 13 85 -6z m1256 -326 c54 -41 113 -90 131 -108 37 -40 83
-127 83 -159 0 -31 -66 -101 -115 -123 -75 -34 -240 -84 -293 -89 -59 -6 -57
-10 -28 67 25 66 21 180 -10 245 -40 86 -57 100 -124 100 -60 0 -110 25 -110
56 0 18 -52 19 -112 0 -133 -40 -244 -184 -250 -326 -2 -47 -11 -65 -20 -38
-2 6 -30 13 -62 16 -52 4 -60 8 -77 36 -20 33 -24 63 -10 85 7 10 12 7 22 -14
10 -21 23 -29 47 -31 18 -2 42 -9 52 -14 17 -9 20 -6 25 17 23 110 57 182 114
236 34 34 50 40 291 100 l255 65 46 -24 c25 -12 91 -56 145 -97z m414 -62 c0
-3 -9 -5 -20 -5 -11 0 -20 7 -20 15 0 13 4 14 20 5 11 -6 20 -13 20 -15z
m-2005 -16 c99 -18 127 -20 168 -10 66 15 94 14 101 -5 9 -24 6 -75 -7 -112
l-12 -32 -33 35 c-23 24 -46 37 -73 41 -26 4 -47 16 -60 32 -17 23 -27 26 -83
26 -120 0 -245 -97 -296 -231 -25 -65 -31 -186 -11 -237 15 -38 8 -43 -27 -17
-47 33 -57 69 -43 153 15 90 48 172 97 244 44 64 119 134 143 134 9 0 70 -10
136 -21z m2293 -210 c23 -17 42 -35 42 -40 0 -13 -3 -12 -63 16 -44 20 -64 23
-109 19 -44 -4 -57 -2 -69 12 -13 16 -10 17 54 12 37 -3 70 -2 73 3 9 16 29
10 72 -22z m-354 -64 c30 -6 26 -18 -10 -29 -14 -4 -30 0 -44 12 -26 21 -20
47 8 32 9 -5 30 -12 46 -15z m86 5 c0 -5 -9 -10 -20 -10 -11 0 -20 5 -20 10 0
6 9 10 20 10 11 0 20 -4 20 -10z m345 -12 c38 -17 31 -23 -27 -24 -29 0 -63
-4 -75 -8 -18 -6 -23 -5 -23 7 0 34 73 49 125 25z m-185 -58 c0 -9 -31 -30
-44 -30 -12 0 -6 28 7 33 20 9 37 8 37 -3z m268 -256 c-3 -14 -5 -12 -10 9 -3
19 -2 25 4 19 6 -6 8 -18 6 -28z m36 -156 c15 -21 7 -58 -14 -58 -15 0 -29 35
-23 58 7 28 18 28 37 0z m-97 -80 c-3 -7 -5 -2 -5 12 0 14 2 19 5 13 2 -7 2
-19 0 -25z m-17 -402 c-7 -7 -10 1 -9 25 0 32 1 33 10 10 6 -16 6 -28 -1 -35z
m-200 -350 c0 -18 -31 -29 -55 -20 -15 6 -15 8 6 20 32 17 49 17 49 0z"/>
<path d="M9805 4048 c-286 -33 -521 -61 -522 -62 -1 -1 15 -355 36 -787 42
-858 35 -795 102 -902 l20 -32 -7 93 c-4 50 -4 92 0 92 3 0 15 -18 26 -40 15
-29 20 -59 20 -114 l0 -75 63 4 c106 8 461 34 707 51 129 9 238 19 241 23 7 7
-14 401 -31 560 -5 58 -10 108 -10 113 0 4 -6 8 -13 8 -17 0 -42 351 -26 361
12 7 -3 313 -26 575 -8 89 -15 169 -15 178 0 20 45 24 -565 -46z m505 -10 c0
-2 9 -88 20 -193 20 -185 25 -304 15 -293 -3 3 -12 63 -20 133 -15 136 -25
171 -25 87 0 -29 -1 -52 -2 -52 -39 -2 -562 -71 -565 -74 -8 -7 7 -76 15 -76
4 0 16 -31 27 -69 18 -68 19 -69 49 -65 121 15 488 46 492 41 12 -12 44 -334
42 -417 l-3 -85 -13 120 c-16 144 -30 197 -31 118 l-1 -52 -42 -6 c-54 -7
-486 -55 -498 -55 -14 0 -12 -56 3 -72 6 -7 23 -46 37 -85 16 -49 29 -73 40
-73 8 0 132 11 275 24 143 14 261 23 263 22 6 -7 31 -252 35 -356 6 -125 -6
-113 -18 18 -9 92 -24 130 -25 60 l0 -47 -42 -5 c-24 -3 -126 -17 -228 -31
-175 -24 -589 -65 -656 -65 l-31 0 -11 193 c-42 683 -68 1235 -59 1244 11 10
957 120 957 111z"/>
<path d="M8314 3916 c-376 -73 -643 -300 -737 -627 -58 -201 -36 -451 48 -532
38 -37 130 -105 123 -91 -2 5 -23 47 -45 94 -63 129 -76 193 -70 335 5 140 32
237 98 348 46 77 139 180 209 232 170 125 409 187 631 165 97 -10 294 -52 330
-71 8 -4 45 -74 82 -156 l66 -148 4 -120 c2 -66 2 -126 -1 -134 -4 -12 -92
175 -127 274 l-15 40 2 -72 c3 -85 18 -83 -142 -18 -58 24 -140 50 -182 59
-224 46 -429 -17 -543 -166 -42 -56 -56 -95 -17 -48 34 40 19 50 141 -93 54
-63 89 -96 98 -93 15 6 14 3 -24 -53 -43 -64 -68 -198 -48 -260 9 -29 53 -43
150 -48 160 -9 311 45 496 177 54 39 104 72 111 75 8 3 37 -39 79 -118 l67
-122 3 -190 c3 -157 2 -190 -10 -190 -8 0 -38 43 -67 95 -43 76 -54 105 -55
145 -2 38 -3 42 -6 17 -4 -27 -14 -39 -60 -69 -177 -113 -407 -173 -617 -160
-150 10 -269 47 -373 117 -25 17 -48 29 -50 26 -8 -7 43 -94 107 -182 103
-143 270 -225 489 -240 213 -14 482 50 634 153 97 66 91 36 61 308 l-26 240
-59 112 c-33 62 -59 117 -59 122 0 6 12 6 32 0 72 -20 68 -36 68 231 l0 241
-61 142 c-34 78 -66 147 -73 153 -18 19 -145 62 -241 84 -118 26 -325 34 -421
16z m516 -805 c58 -18 116 -36 130 -41 22 -6 9 -15 -105 -74 -71 -37 -168 -87
-214 -111 -102 -54 -208 -80 -298 -72 -35 2 -67 8 -70 11 -12 12 -2 101 17
142 34 78 125 151 217 174 74 18 210 6 323 -29z"/>
<path d="M958 2738 c-38 -10 -44 -21 -32 -53 5 -12 9 -14 14 -4 6 9 22 8 70
-5 38 -11 66 -14 72 -8 9 9 -4 56 -19 65 -20 12 -71 14 -105 5z"/>
<path d="M994 2645 c19 -14 18 -15 -15 -27 l-34 -12 45 -9 c70 -13 72 -13 83
5 14 22 9 26 -50 44 -42 12 -46 12 -29 -1z"/>
<path d="M1337 2623 c-9 -16 14 -72 42 -102 30 -32 79 -42 111 -21 12 8 9 10
-11 10 -30 0 -79 34 -79 55 0 8 -9 17 -20 20 -11 3 -20 13 -20 20 0 16 -17 29
-23 18z"/>
<path d="M1194 2535 c-10 -15 -26 -25 -41 -25 -13 0 -21 -4 -18 -10 3 -5 26
-10 51 -10 37 0 44 3 44 19 0 11 3 26 6 35 10 26 -24 19 -42 -9z"/>
<path d="M1277 2513 c-27 -30 -27 -33 -9 -33 14 0 24 10 31 32 6 17 10 32 9
33 -2 1 -16 -13 -31 -32z"/>
<path d="M1570 2530 c0 -27 28 -70 46 -70 16 0 19 16 4 25 -5 3 -10 15 -10 25
0 11 -9 24 -20 30 -17 9 -20 8 -20 -10z"/>
<path d="M1950 2488 c0 -7 4 -19 9 -27 11 -17 25 3 17 24 -7 18 -26 20 -26 3z"/>
<path d="M1192 2431 c-23 -6 -23 -6 10 -36 19 -17 24 -20 13 -7 -16 20 -17 25
-5 32 20 12 10 18 -18 11z"/>
<path d="M5397 2274 c-110 -103 -261 -157 -432 -157 -73 1 -118 6 -164 21 -87
28 -65 13 47 -33 50 -21 92 -41 92 -45 0 -4 -86 26 -191 67 -105 41 -193 72
-196 70 -9 -10 97 -92 152 -117 153 -70 496 -191 566 -199 74 -10 194 -2 283
19 123 28 253 112 334 216 39 50 40 51 34 123 l-5 72 -22 -54 c-30 -74 -81
-142 -135 -181 -74 -54 -78 -53 -17 4 32 29 54 56 50 61 -4 4 -80 44 -168 90
-88 45 -162 86 -165 90 -3 4 -31 -17 -63 -47z"/>
<path d="M952 2287 c-31 -7 -41 -14 -37 -24 3 -8 5 -19 5 -24 0 -5 10 -7 23
-4 12 3 62 -3 110 -15 108 -25 107 -25 107 1 0 69 -85 96 -208 66z"/>
<path d="M1077 2176 c-4 -9 -17 -16 -30 -16 -13 0 -31 -6 -41 -13 -15 -11 -10
-14 45 -26 61 -12 63 -12 88 13 28 29 23 40 -25 50 -24 5 -33 3 -37 -8z"/>
<path d="M4707 2169 c7 -7 15 -10 18 -7 3 3 -2 9 -12 12 -14 6 -15 5 -6 -5z"/>
<path d="M8323 1967 c-171 -13 -314 -25 -317 -28 -6 -6 52 -1508 59 -1528 5
-12 42 -13 228 -7 366 12 564 25 630 41 257 65 443 211 547 430 52 108 73 200
74 315 1 108 -16 202 -51 275 -13 28 -21 41 -18 30 6 -25 1 -19 -68 100 -72
124 -216 270 -309 313 -173 81 -313 91 -775 59z m517 -513 c70 -21 113 -64
134 -134 35 -118 11 -226 -69 -305 -60 -61 -122 -84 -241 -92 l-81 -6 -7 224
c-3 123 -9 248 -12 277 l-6 52 114 0 c76 0 133 -5 168 -16z m-281 -381 c16
-56 14 -150 -3 -156 -17 -7 -26 39 -26 131 0 70 14 81 29 25z"/>
<path d="M7420 1900 c-124 -10 -316 -23 -427 -30 l-203 -13 0 -53 c0 -29 9
-340 20 -690 12 -350 20 -645 18 -655 -2 -13 -15 -3 -48 39 -38 47 -51 57 -77
57 -17 0 -41 9 -53 20 -34 29 -144 181 -243 333 l-87 134 32 -7 c18 -4 45 -15
61 -26 19 -14 32 -17 43 -11 15 8 14 11 -6 25 l-21 15 19 38 c36 70 52 144 52
233 -1 139 -39 220 -83 177 -14 -14 -20 -7 -61 70 -25 48 -46 89 -46 91 0 3 9
3 21 0 47 -12 -16 36 -97 74 -107 51 -181 69 -279 69 -105 -1 -465 -26 -472
-34 -8 -8 25 -1437 33 -1445 7 -7 219 -5 402 4 l134 7 -7 159 c-4 87 -5 159
-3 159 3 0 50 -67 104 -149 87 -131 103 -150 131 -156 29 -5 1214 35 1501 51
l114 6 -7 178 c-4 98 -11 205 -15 237 l-7 58 -2 -66 c-1 -52 -5 -68 -17 -73
-24 -9 -26 -4 -32 75 l-5 72 -223 -8 c-193 -6 -224 -5 -224 8 0 15 7 15 352
33 l128 7 -6 136 c-4 75 -10 181 -14 236 -6 81 -7 88 -9 38 -1 -50 -5 -64 -20
-72 -25 -14 -31 2 -31 86 l0 66 -152 -7 c-84 -4 -180 -9 -213 -12 -39 -3 -53
-1 -40 4 11 5 121 15 245 21 124 7 228 16 231 19 3 4 2 77 -2 162 -4 85 -8
188 -8 228 -1 91 -19 95 -23 5 -2 -39 -8 -68 -15 -70 -16 -6 -24 28 -25 102
l0 65 -57 -1 c-31 -1 -157 -9 -281 -19z m-125 -510 c3 -5 -1 -10 -9 -10 -9 0
-16 5 -16 10 0 6 4 10 9 10 6 0 13 -4 16 -10z m-1357 -39 c24 -21 29 -32 10
-27 -7 3 -25 7 -40 10 -22 5 -28 12 -28 32 0 21 3 23 18 15 9 -6 27 -19 40
-30z m-83 -451 c3 -5 1 -10 -4 -10 -6 0 -11 5 -11 10 0 6 2 10 4 10 3 0 8 -4
11 -10z m99 -125 c27 -42 47 -77 45 -79 -2 -1 -17 -8 -33 -14 -41 -18 -56 0
-71 90 -8 40 -17 82 -21 93 -15 39 30 -11 80 -90z m1371 84 c-7 -10 -35 -1
-35 11 0 5 9 6 20 3 11 -3 17 -9 15 -14z"/>
</g>
</svg>
