<?xml version="1.0" encoding="UTF-8"?>
<svg version="1.1" xmlns="http://www.w3.org/2000/svg" width="100" height="100">
<path d="M0 0 C5.98650446 3.42635947 9.23381175 8.10630842 11.5 14.55078125 C13.21844501 21.45678211 12.82871947 27.29857143 9.20703125 33.484375 C4.56835893 39.98063921 -0.43582005 43.53095001 -8.3125 44.9375 C-15.7201799 45.50286109 -21.83531695 43.60133742 -27.58203125 38.8984375 C-32.39711847 33.96795603 -35.25141795 27.98309459 -35.375 21.0625 C-34.754536 14.05642731 -32.18239267 8.21897721 -27.375 3.0625 C-19.21180036 -3.16883922 -9.37643702 -4.04059673 0 0 Z " fill="#FC0217" transform="translate(61.375,31.9375)"/>
<path d="M0 0 C5.98650446 3.42635947 9.23381175 8.10630842 11.5 14.55078125 C13.21844501 21.45678211 12.82871947 27.29857143 9.20703125 33.484375 C4.56835893 39.98063921 -0.43582005 43.53095001 -8.3125 44.9375 C-15.7201799 45.50286109 -21.83531695 43.60133742 -27.58203125 38.8984375 C-32.39711847 33.96795603 -35.25141795 27.98309459 -35.375 21.0625 C-34.754536 14.05642731 -32.18239267 8.21897721 -27.375 3.0625 C-19.21180036 -3.16883922 -9.37643702 -4.04059673 0 0 Z M-28.3359375 6.15234375 C-31.68850241 10.7562181 -33.26947059 14.24844117 -32.375 20.0625 C-31.23795819 24.13689981 -29.4671527 26.23538896 -26.375 29.0625 C-25.59125 29.908125 -24.8075 30.75375 -24 31.625 C-17.94202653 37.25026108 -11.29253804 38.5479025 -3.2734375 38.47265625 C1.6411188 37.77720017 5.09950752 35.47782084 8.625 32.0625 C11.35003286 27.26644217 11.37109296 21.45976822 10.625 16.0625 C8.47108482 8.95248874 5.02353096 4.92373111 -1.2890625 1.12109375 C-10.53033746 -3.56876676 -21.30210039 -1.34387708 -28.3359375 6.15234375 Z " fill="#500001" transform="translate(61.375,31.9375)"/>
<path d="M0 0 C3.72870437 1.76622839 5.47654765 2.7375561 7.0625 6.5625 C7 9 7 9 5.875 10.5 C5.25625 10.995 4.6375 11.49 4 12 C3.2575 12.886875 2.515 13.77375 1.75 14.6875 C-1 17 -1 17 -4.5 17.5625 C-8.5734535 16.90783783 -10.07293957 15.84795069 -13 13 C-13.78375 12.360625 -14.5675 11.72125 -15.375 11.0625 C-17 9 -17 9 -17.125 6.5 C-13.92894532 -0.60234374 -6.87075577 -1.10243893 0 0 Z " fill="#FF585E" transform="translate(55,33)"/>
<path d="M0 0 C5.75 -0.125 5.75 -0.125 8 1 C8 3.31 8 5.62 8 8 C5.66705225 8.04241723 3.33297433 8.04092937 1 8 C0 7 0 7 -0.0625 3.4375 C-0.041875 2.303125 -0.02125 1.16875 0 0 Z " fill="#FF878B" transform="translate(46,42)"/>
<path d="M0 0 C1.98 0 3.96 0 6 0 C6 1.65 6 3.3 6 5 C4.02 5 2.04 5 0 5 C0 3.35 0 1.7 0 0 Z " fill="#FFC5C8" transform="translate(47,44)"/>
</svg>
